<svg width="98" height="98" viewBox="0 0 98 98" fill="none" xmlns="http://www.w3.org/2000/svg">
<g clip-path="url(#clip0_2309_4553)">
<path d="M4 74.3126C4 85.1857 12.8144 94.0001 23.6875 94.0001H74.3125C85.1856 94.0001 94 85.1857 94 74.3126V64H4V74.3126Z" fill="#73AF00"/>
<path d="M74.3125 4H23.6875C12.8144 4 4 12.8144 4 23.6875V34.0001H94V23.6875C94 12.8144 85.1856 4 74.3125 4Z" fill="#82AFFF"/>
<path d="M94 34.0006H4V64.0012H94V34.0006Z" fill="#FF4B55"/>
<path d="M52.2396 58.8216C46.9245 58.8216 42.613 54.5101 42.613 49.1901C42.613 43.8799 46.9245 39.5586 52.2396 39.5586C54.2172 39.5586 56.0409 40.1668 57.5605 41.1962C57.7933 41.3539 58.0589 41.048 57.8641 40.8454C55.5928 38.4839 52.3782 37.0432 48.8138 37.1649C42.6903 37.3739 37.621 42.2834 37.2297 48.398C36.7814 55.4018 42.3272 61.2223 49.2318 61.2223C52.633 61.2223 55.6897 59.8004 57.8725 57.5268C58.0654 57.3259 57.7992 57.0248 57.5686 57.1811C56.0474 58.2127 54.2207 58.8216 52.2396 58.8216Z" fill="#F5F5F5"/>
<path d="M60.6675 43.2615L61.6663 46.07L64.3583 44.7903C64.5612 44.694 64.7727 44.9054 64.6763 45.1083L63.3966 47.8004L66.2051 48.7991C66.4166 48.8744 66.4166 49.1736 66.2051 49.2488L63.3966 50.2476L64.6763 52.9397C64.7727 53.1425 64.5612 53.354 64.3583 53.2577L61.6663 51.978L60.6675 54.7864C60.5922 54.9979 60.293 54.9979 60.2178 54.7864L59.219 51.978L56.5269 53.2577C56.3241 53.354 56.1126 53.1425 56.2089 52.9397L57.4886 50.2476L54.6802 49.2488C54.4687 49.1736 54.4687 48.8744 54.6802 48.7991L57.4886 47.8004L56.2089 45.1083C56.1126 44.9054 56.3241 44.694 56.5269 44.7903L59.219 46.07L60.2178 43.2615C60.293 43.0499 60.5922 43.0499 60.6675 43.2615Z" fill="#F5F5F5"/>
</g>
<rect x="2" y="2" width="94" height="94" rx="47" stroke="white" stroke-opacity="0.1" stroke-width="4"/>
<defs>
<clipPath id="clip0_2309_4553">
<rect x="4" y="4" width="90" height="90" rx="45" fill="white"/>
</clipPath>
</defs>
</svg>
