<svg width="98" height="98" viewBox="0 0 98 98" fill="none" xmlns="http://www.w3.org/2000/svg">
<g clip-path="url(#clip0_2309_4118)">
<path d="M74.3125 4H23.6875C12.8144 4 4 12.8144 4 23.6875V74.3125C4 85.1856 12.8144 94 23.6875 94H74.3125C85.1856 94 94 85.1856 94 74.3125V23.6875C94 12.8144 85.1856 4 74.3125 4Z" fill="#82C3D2"/>
<path d="M13.605 87.9777C13.3923 87.3401 12.5665 85.6292 12.5391 85.5723C12.3127 85.0636 12.1935 84.5011 12.1935 83.9449C12.1935 83.1671 12.6447 82.4863 13.2911 82.2889C13.8167 82.1263 14.3576 82.214 14.7771 82.5242C15.1957 82.8334 15.4358 83.3095 15.4358 83.8287C15.4358 84.4789 15.0188 84.6941 14.8396 84.7565C14.562 84.8535 14.2966 84.7976 14.211 84.689C14.1387 84.5972 14.1461 84.3459 14.4052 83.9386C14.5657 83.6874 14.4922 83.3527 14.2405 83.1924C13.9882 83.034 13.6553 83.108 13.4943 83.3582C12.804 84.4401 13.1724 85.1175 13.3628 85.3592C13.7469 85.8437 14.463 86.0102 15.1537 85.7853C14.9267 86.7479 14.7177 87.6578 15.5938 88.534C15.6993 88.6395 15.8376 88.6922 15.976 88.6922C16.1141 88.6922 16.2525 88.6395 16.3581 88.534C16.5692 88.3229 16.5692 87.981 16.3581 87.7699C15.9254 87.3371 15.9818 86.9815 16.2098 86.0168C16.3465 85.4385 16.5163 84.7176 16.5163 83.8289C16.5163 82.982 16.1104 82.1755 15.4321 81.6673C16.1104 81.1591 16.5163 80.3528 16.5163 79.5057C16.5163 78.617 16.3463 77.8963 16.2098 77.3178C15.9818 76.3531 15.9254 75.9975 16.3581 75.5647C16.5692 75.3536 16.5692 75.0117 16.3581 74.8006C16.147 74.5895 15.8051 74.5895 15.594 74.8006C14.7177 75.6769 14.9267 76.5865 15.1538 77.5493C14.4632 77.3236 13.7471 77.4899 13.363 77.9754C13.1724 78.2171 12.8042 78.8947 13.4945 79.9765C13.655 80.2277 13.9868 80.3015 14.2407 80.1422C14.4924 79.9818 14.5657 79.6472 14.4054 79.396C14.1463 78.9886 14.1389 78.7374 14.2111 78.6456C14.2966 78.537 14.562 78.4809 14.8397 78.5781C15.0192 78.6404 15.436 78.8557 15.436 79.5059C15.436 80.0252 15.1959 80.5012 14.7773 80.8104C14.3577 81.1206 13.8147 81.2094 13.2913 81.0457C12.6447 80.8483 12.1937 80.1675 12.1937 79.3897C12.1937 78.8335 12.3129 78.2709 12.5393 77.7622L16.0781 69.8C16.3688 69.1455 16.5167 68.4501 16.5167 67.7335C16.5167 66.8115 16.0974 65.9695 15.4377 65.4559C16.0974 64.9421 16.5167 64.1001 16.5167 63.1783C16.5167 62.4616 16.3688 61.7661 16.0781 61.1118L12.5393 53.1496C12.3129 52.6409 12.1937 52.0784 12.1937 51.5222C12.1937 50.7444 12.6449 50.0636 13.2913 49.8662C13.8169 49.7036 14.3577 49.7913 14.7773 50.1016C15.1959 50.4108 15.436 50.8868 15.436 51.406C15.436 52.0561 15.019 52.2714 14.8397 52.3338C14.5622 52.4319 14.2967 52.375 14.2111 52.2663C14.1389 52.1746 14.1463 51.9234 14.4054 51.5159C14.5659 51.2647 14.4924 50.9302 14.2407 50.7697C13.9884 50.6113 13.6555 50.6853 13.4945 50.9355C12.8042 52.0172 13.1726 52.6949 13.363 52.9366C13.7471 53.421 14.4632 53.5875 15.1538 53.3627C14.9269 54.3252 14.7179 55.2349 15.594 56.1112C15.6995 56.2168 15.8378 56.2696 15.9762 56.2696C16.1143 56.2696 16.2527 56.2168 16.3583 56.1112C16.5694 55.9001 16.5694 55.5582 16.3583 55.3471C15.9255 54.9143 15.982 54.5587 16.2099 53.594C16.3467 53.0157 16.5165 52.2948 16.5165 51.406C16.5165 50.8145 16.3086 50.2492 15.9587 49.7848H15.9762C16.2748 49.7848 16.5165 49.5431 16.5165 49.2445C16.5165 48.9458 16.2748 48.7041 15.9762 48.7041H15.9587C16.3086 48.2397 16.5165 47.6744 16.5165 47.0829C16.5165 46.1941 16.3465 45.4734 16.2099 44.8949C15.982 43.9302 15.9255 43.5746 16.3583 43.1419C16.5694 42.9307 16.5694 42.5889 16.3583 42.3777C16.1472 42.1666 15.8053 42.1666 15.5942 42.3777C14.7179 43.254 14.9269 44.1639 15.154 45.1264C14.4634 44.9016 13.7472 45.0681 13.3632 45.5525C13.1726 45.7942 12.8044 46.4719 13.4946 47.5536C13.6551 47.8048 13.987 47.8776 14.2408 47.7194C14.4926 47.5589 14.5659 47.2244 14.4055 46.9732C14.1464 46.5657 14.1391 46.3147 14.2113 46.2228C14.2967 46.1142 14.5622 46.0581 14.8399 46.1553C15.0194 46.2175 15.4362 46.4328 15.4362 47.0831C15.4362 47.6023 15.196 48.0783 14.7775 48.3875C14.3579 48.6978 13.8149 48.7855 13.2914 48.6229C12.6449 48.4255 12.1939 47.7447 12.1939 46.9669C12.1939 46.4107 12.313 45.848 12.5395 45.3395L16.0783 37.3773C16.369 36.7229 16.5169 36.0275 16.5169 35.3108C16.5169 34.3888 16.0976 33.5468 15.4379 33.0332C16.0976 32.5194 16.5169 31.6774 16.5169 30.7556C16.5169 30.039 16.369 29.3434 16.0783 28.6891L12.5389 20.7262C12.3125 20.2175 12.1933 19.655 12.1933 19.0987C12.1933 18.3208 12.6446 17.64 13.2909 17.4426C13.8165 17.28 14.3574 17.3678 14.777 17.678C15.1955 17.9872 15.4356 18.4632 15.4356 18.9825C15.4356 19.6327 15.0187 19.848 14.8394 19.9103C14.5618 20.0073 14.2964 19.9503 14.2108 19.8428C14.1385 19.751 14.1459 19.4998 14.405 19.0924C14.5655 18.8412 14.492 18.5066 14.2403 18.3462C13.9881 18.1878 13.6551 18.2607 13.4941 18.5119C12.8038 19.5937 13.1723 20.2713 13.3626 20.513C13.7467 20.9975 14.4629 21.1639 15.1535 20.9391C14.9266 21.9017 14.7176 22.8115 15.5937 23.6878C15.6991 23.7933 15.8375 23.8462 15.9758 23.8462C16.114 23.8462 16.2523 23.7934 16.358 23.6878C16.5691 23.4767 16.5691 23.1348 16.358 22.9237C15.9252 22.4909 15.9816 22.1353 16.2096 21.1706C16.3463 20.5923 16.5162 19.8714 16.5162 18.9827C16.5162 18.3912 16.3082 17.8258 15.9584 17.3614H15.9758C16.2745 17.3614 16.5162 17.1197 16.5162 16.8211C16.5162 16.5224 16.2745 16.2807 15.9758 16.2807H15.9584C16.3082 15.8163 16.5162 15.251 16.5162 14.6597C16.5162 13.7709 16.3462 13.05 16.2096 12.4717C15.9816 11.507 15.9252 11.1514 16.358 10.7187C16.5691 10.5075 16.5691 10.1657 16.358 9.95454C16.1468 9.74342 15.8049 9.74342 15.5938 9.95454C14.7176 10.8308 14.9266 11.7405 15.1537 12.7032C14.463 12.4775 13.7469 12.6449 13.3628 13.1293C13.1723 13.371 12.804 14.0487 13.4943 15.1304C13.6548 15.3816 13.9867 15.4554 14.2405 15.2962C14.4922 15.1357 14.5655 14.8012 14.4052 14.55C14.1461 14.1425 14.1387 13.8913 14.211 13.7996C14.2964 13.6909 14.5618 13.6338 14.8396 13.7321C15.019 13.7943 15.4358 14.0096 15.4358 14.6599C15.4358 15.1791 15.1957 15.6551 14.7771 15.9643C14.3576 16.2746 13.8146 16.3623 13.2911 16.1997C12.6446 16.0023 12.1935 15.3215 12.1935 14.5437C12.1935 13.9875 12.3127 13.425 12.5317 12.9321C12.5665 12.8593 13.3925 11.1484 13.605 10.5109C14.0257 9.24966 13.5982 8.61526 13.3064 8.35036C12.9158 7.99475 12.3454 7.90598 11.8541 8.12132C11.7796 8.15436 11.7179 8.20235 11.653 8.247C11.621 8.22503 11.5895 8.202 11.5572 8.18055C10.8528 8.73233 10.1879 9.33157 9.56523 9.97247C9.59336 10.1382 9.63607 10.3161 9.70094 10.5109C9.91363 11.1483 10.7395 12.8591 10.7669 12.9163C10.9933 13.425 11.1125 13.9875 11.1125 14.5438C11.1125 15.3217 10.6612 16.0025 10.0149 16.1999C9.48982 16.3625 8.94842 16.2758 8.52883 15.9645C8.11029 15.6553 7.87018 15.1793 7.87018 14.66C7.87018 14.0098 8.28713 13.7945 8.46643 13.7323C8.74504 13.6342 9.00889 13.6911 9.09502 13.7998C9.16727 13.8915 9.15988 14.1427 8.90078 14.5502C8.74029 14.8014 8.81377 15.1359 9.06549 15.2964C9.31932 15.4568 9.65225 15.3818 9.81168 15.1306C10.502 14.0488 10.1335 13.3712 9.94316 13.1295C9.55908 12.645 8.84295 12.4777 8.15231 12.7034C8.26147 12.2404 8.36518 11.7897 8.34725 11.3492C7.82342 11.9996 7.33967 12.6837 6.90074 13.3983C6.83658 13.7755 6.78947 14.1942 6.78947 14.6599C6.78947 15.2512 6.99725 15.8167 7.34723 16.2809H7.32982C7.03117 16.2809 6.78947 16.5226 6.78947 16.8213C6.78947 17.1199 7.03117 17.3616 7.32982 17.3616H7.34723C6.99742 17.826 6.78947 18.3913 6.78947 18.9828C6.78947 19.8716 6.95945 20.5925 7.09604 21.1708C7.32402 22.1355 7.38045 22.4911 6.94768 22.9239C6.73656 23.135 6.73656 23.4769 6.94768 23.688C7.05314 23.7934 7.19148 23.8464 7.32982 23.8464C7.46816 23.8464 7.60633 23.7936 7.71197 23.688C8.58824 22.8117 8.37924 21.9019 8.15231 20.9393C8.84295 21.1641 9.55908 20.9976 9.94316 20.5132C10.1337 20.2715 10.502 19.5939 9.81168 18.5121C9.65172 18.2609 9.31773 18.186 9.06549 18.3463C8.81377 18.5068 8.74047 18.8413 8.90078 19.0925C9.15988 19.5 9.16727 19.7512 9.09502 19.8429C9.00906 19.9507 8.74522 20.0076 8.46643 19.9104C8.28695 19.8482 7.87018 19.6329 7.87018 18.9827C7.87018 18.4634 8.11029 17.9874 8.52883 17.6782C8.94842 17.3679 9.49088 17.2792 10.0149 17.4428C10.6614 17.6402 11.1125 18.3208 11.1125 19.0989C11.1125 19.655 10.9931 20.2177 10.7669 20.7264L7.22805 28.6884C6.93731 29.3429 6.78947 30.0382 6.78947 30.7549C6.78947 31.6769 7.20871 32.5189 7.86842 33.0325C7.20871 33.5463 6.78947 34.3881 6.78947 35.3101C6.78947 36.0268 6.93731 36.7223 7.22805 37.3766L10.7669 45.3388C10.9933 45.8475 11.1125 46.41 11.1125 46.9662C11.1125 47.744 10.6612 48.4248 10.0149 48.6222C9.48982 48.7858 8.94842 48.6981 8.52883 48.3868C8.11029 48.0776 7.87018 47.6016 7.87018 47.0824C7.87018 46.4321 8.28713 46.2168 8.46643 46.1546C8.74504 46.0575 9.00889 46.1134 9.09502 46.2221C9.16727 46.314 9.15988 46.565 8.90078 46.9725C8.74029 47.2237 8.81377 47.5582 9.06549 47.7187C9.31932 47.8792 9.65225 47.8052 9.81168 47.5529C10.502 46.4712 10.1335 45.7935 9.94316 45.5518C9.55908 45.0674 8.84295 44.9009 8.15231 45.1257C8.37924 44.1632 8.58824 43.2533 7.71197 42.377C7.50086 42.1659 7.15897 42.1659 6.94785 42.377C6.73674 42.5882 6.73674 42.93 6.94785 43.1412C7.38063 43.5739 7.3242 43.9295 7.09621 44.8942C6.95945 45.4725 6.78965 46.1934 6.78965 47.0822C6.78965 47.6737 6.99742 48.239 7.3474 48.7034H7.33C7.03135 48.7034 6.78965 48.9451 6.78965 49.2438C6.78965 49.5424 7.03135 49.7841 7.33 49.7841H7.3474C6.9976 50.2485 6.78965 50.8138 6.78965 51.4053C6.78965 52.2939 6.95963 53.0148 7.09621 53.5933C7.3242 54.558 7.38063 54.9136 6.94785 55.3464C6.73674 55.5575 6.73674 55.8994 6.94785 56.1105C7.05332 56.2161 7.19166 56.2689 7.33 56.2689C7.46834 56.2689 7.6065 56.2161 7.71215 56.1105C8.58842 55.2342 8.37941 54.3244 8.15248 53.362C8.84313 53.5868 9.55926 53.4203 9.94334 52.9359C10.1339 52.6942 10.5021 52.0165 9.81186 50.9348C9.65189 50.6836 9.31791 50.6087 9.06566 50.769C8.81395 50.9295 8.74064 51.264 8.90096 51.5152C9.16006 51.9227 9.16744 52.1739 9.0952 52.2656C9.00924 52.3742 8.74539 52.4314 8.4666 52.3331C8.28713 52.2709 7.87035 52.0556 7.87035 51.4053C7.87035 50.8861 8.11047 50.4101 8.529 50.1009C8.94859 49.7906 9.49106 49.7018 10.0151 49.8655C10.6616 50.0629 11.1126 50.7437 11.1126 51.5215C11.1126 52.0777 10.9933 52.6404 10.7671 53.1489L7.22822 61.1111C6.93748 61.7655 6.78965 62.4609 6.78965 63.1776C6.78965 64.0996 7.20889 64.9416 7.86859 65.4552C7.20889 65.969 6.78965 66.8108 6.78965 67.7328C6.78965 68.4494 6.93748 69.145 7.22822 69.7993L10.7671 77.7615C10.9935 78.2702 11.1126 78.8327 11.1126 79.389C11.1126 80.1668 10.6614 80.8476 10.0151 81.045C9.49 81.2087 8.94859 81.1199 8.529 80.8097C8.11047 80.5005 7.87035 80.0245 7.87035 79.5052C7.87035 78.8552 8.2873 78.6397 8.4666 78.5774C8.74522 78.4804 9.00906 78.5363 9.0952 78.6449C9.16744 78.7367 9.16006 78.9879 8.90096 79.3953C8.74047 79.6465 8.81395 79.981 9.06566 80.1415C9.31949 80.302 9.65242 80.228 9.81186 79.9758C10.5021 78.8938 10.1337 78.2164 9.94334 77.9747C9.55926 77.4892 8.84313 77.3229 8.15248 77.5486C8.37941 76.5858 8.58842 75.6762 7.71215 74.7999C7.50104 74.5888 7.15914 74.5888 6.94803 74.7999C6.73691 75.011 6.73691 75.3529 6.94803 75.564C7.3808 75.9968 7.32438 76.3524 7.09639 77.3171C6.95963 77.8954 6.78982 78.6163 6.78982 79.505C6.78982 80.3519 7.1957 81.1584 7.87404 81.6666C7.1957 82.1748 6.78982 82.9813 6.78982 83.8282C6.78982 84.0516 6.80055 84.2643 6.81883 84.467C7.27164 85.2176 7.77367 85.9349 8.31947 86.6159C8.28291 86.3429 8.21875 86.0661 8.15248 85.7848C8.84313 86.0096 9.55926 85.8432 9.94334 85.3587C10.1339 85.117 10.5021 84.4396 9.81186 83.3576C9.65189 83.1064 9.31791 83.0326 9.06566 83.1919C8.81395 83.3524 8.74064 83.6869 8.90096 83.9381C9.16006 84.3453 9.16744 84.5967 9.0952 84.6885C9.00924 84.7971 8.74539 84.8532 8.4666 84.756C8.28713 84.6937 7.87035 84.4784 7.87035 83.8282C7.87035 83.3089 8.11047 82.8329 8.529 82.5237C8.94859 82.2135 9.49106 82.1257 10.0151 82.2883C10.6616 82.4857 11.1126 83.1665 11.1126 83.9444C11.1126 84.5006 10.9933 85.0632 10.7744 85.5559C10.7396 85.6287 9.91381 87.3396 9.70111 87.9772C9.68459 88.0267 9.67158 88.0738 9.65752 88.1215C9.96496 88.4337 10.2826 88.7355 10.6101 89.0267C10.5965 88.8557 10.6247 88.6226 10.7259 88.3191C10.8657 87.901 11.3714 86.8137 11.653 86.2232C11.9284 86.7998 12.4394 87.8982 12.5802 88.3191C12.7724 88.8953 12.7052 89.2236 12.5787 89.3386C12.4938 89.4157 12.3691 89.4124 12.2911 89.3776C12.1935 89.3344 12.1935 89.2656 12.1935 89.2319C12.1935 88.9332 11.9518 88.6915 11.6532 88.6915C11.3545 88.6915 11.1128 88.9332 11.1128 89.2319C11.1128 89.2656 11.1128 89.3342 11.0154 89.3774C11.4779 89.7668 11.9585 90.1352 12.456 90.4815C12.7667 90.4703 13.0694 90.3532 13.3066 90.1375C13.5982 89.8731 14.0255 89.2389 13.605 87.9777ZM10.7257 10.1686C10.5336 9.59243 10.6006 9.26407 10.7273 9.14911C10.8101 9.07106 10.9358 9.07423 11.0149 9.11008C11.1125 9.15333 11.1125 9.22188 11.1125 9.25581C11.1125 9.55446 11.3542 9.79616 11.6528 9.79616C11.9515 9.79616 12.1932 9.55446 12.1932 9.25581C12.1932 9.22206 12.1932 9.1535 12.2907 9.11008C12.3688 9.07423 12.4934 9.07106 12.5783 9.14911C12.705 9.26425 12.772 9.59243 12.5799 10.1686C12.4401 10.5866 11.9344 11.674 11.6528 12.2645C11.3775 11.6879 10.8665 10.5895 10.7257 10.1686ZM12.1916 16.8211C11.987 16.9803 11.8057 17.1707 11.653 17.386C11.5002 17.1707 11.319 16.9803 11.1144 16.8211C11.319 16.6618 11.5002 16.4715 11.653 16.2561C11.8056 16.4715 11.987 16.6618 12.1916 16.8211ZM8.21594 29.1275L11.653 21.3944L15.09 29.1275C15.3164 29.6362 15.4356 30.1987 15.4356 30.7551C15.4356 31.5329 14.9844 32.2137 14.338 32.4111C13.8135 32.5748 13.2711 32.486 12.852 32.1758C12.4335 31.8666 12.1933 31.3905 12.1933 30.8713C12.1933 30.2211 12.6103 30.0059 12.7896 29.9435C13.0677 29.8465 13.3326 29.9024 13.4182 30.011C13.4904 30.1028 13.483 30.354 13.2239 30.7614C13.0635 31.0126 13.1369 31.3471 13.3887 31.5076C13.6425 31.667 13.9754 31.5941 14.1348 31.3418C14.8251 30.2601 14.4567 29.5824 14.2662 29.3407C13.8745 28.8468 13.139 28.6779 12.435 28.9227C12.3547 28.9505 12.2737 28.985 12.1933 29.0257V27.6589C12.1935 27.6592 12.1942 27.6598 12.1942 27.6598C12.2107 27.9442 12.4461 28.169 12.7337 28.169C13.0323 28.169 13.274 27.9273 13.274 27.6286C13.274 27.2762 13.0276 26.6648 12.1933 26.4753V25.4672C12.1933 25.1686 11.9516 24.9269 11.653 24.9269C11.3543 24.9269 11.1126 25.1686 11.1126 25.4672V26.4753C10.2784 26.6648 10.0319 27.2762 10.0319 27.6286C10.0319 27.9273 10.2731 28.1869 10.5712 28.1869C10.8699 28.1869 11.1105 27.9632 11.1105 27.6645C11.1107 27.6634 11.1123 27.6624 11.1126 27.6613V29.0256C11.0323 28.9848 10.9513 28.9503 10.8709 28.9226C10.1669 28.6777 9.43076 28.8466 9.03982 29.3406C8.84928 29.5823 8.48102 30.2599 9.17131 31.3417C9.3318 31.5929 9.66525 31.6656 9.9175 31.5074C10.1692 31.3469 10.2425 31.0124 10.0822 30.7612C9.82311 30.3538 9.81572 30.1026 9.88797 30.0108C9.97287 29.9022 10.2379 29.8461 10.5166 29.9433C10.696 30.0056 11.1128 30.2209 11.1128 30.8711C11.1128 31.3904 10.8727 31.8664 10.4542 32.1756C10.0346 32.4858 9.49264 32.5746 8.96811 32.4109C8.32158 32.2135 7.87053 31.5327 7.87053 30.7549C7.87018 30.1987 7.98953 29.6362 8.21594 29.1275ZM12.1969 33.0327C11.9835 33.1926 11.8082 33.3885 11.653 33.5994C11.4978 33.3885 11.3223 33.1925 11.1091 33.0327C11.3225 32.8727 11.4978 32.6769 11.653 32.466C11.808 32.6767 11.9835 32.8727 12.1969 33.0327ZM8.21594 36.9377C7.98953 36.429 7.87035 35.8665 7.87035 35.3101C7.87035 34.5323 8.32158 33.8515 8.96793 33.6541C9.49299 33.4916 10.0349 33.5792 10.454 33.8894C10.8725 34.1986 11.1126 34.6747 11.1126 35.1939C11.1126 35.8441 10.6957 36.0595 10.5164 36.1217C10.2378 36.2198 9.97287 36.1628 9.88779 36.0542C9.81555 35.9624 9.82293 35.7112 10.082 35.3038C10.2425 35.0526 10.169 34.7181 9.91732 34.5576C9.66508 34.3982 9.33215 34.4722 9.17113 34.7233C8.48084 35.8053 8.84928 36.4827 9.03965 36.7244C9.43076 37.2184 10.1669 37.3873 10.8708 37.1425C10.9511 37.1147 11.0321 37.0802 11.1125 37.0394V38.4061L11.1114 38.4047C11.0951 38.1208 10.8597 37.896 10.5721 37.896C10.2735 37.896 10.0318 38.1377 10.0318 38.4364C10.0318 38.789 10.2782 39.4002 11.1125 39.5897V40.5978C11.1125 40.8964 11.3542 41.1381 11.6528 41.1381C11.9515 41.1381 12.1932 40.8964 12.1932 40.5978V39.5897C13.0274 39.4002 13.2739 38.7888 13.2739 38.4364C13.2739 38.1377 13.0327 37.8781 12.7346 37.8781C12.4359 37.8781 12.1953 38.1019 12.1953 38.4005C12.1951 38.4016 12.1935 38.4026 12.1935 38.4026L12.1933 37.0394C12.2737 37.0802 12.3547 37.1147 12.435 37.1425C13.139 37.3873 13.8747 37.2184 14.2662 36.7244C14.4567 36.4827 14.825 35.8051 14.1348 34.7233C13.9744 34.4711 13.6409 34.3973 13.3887 34.5576C13.1369 34.7181 13.0636 35.0526 13.2239 35.3038C13.483 35.7112 13.4904 35.9624 13.4182 36.0542C13.3328 36.1628 13.0679 36.2199 12.7896 36.1217C12.6101 36.0595 12.1933 35.8441 12.1933 35.1939C12.1933 34.6747 12.4335 34.1986 12.852 33.8894C13.2716 33.5792 13.8146 33.4916 14.338 33.6541C14.9846 33.8515 15.4356 34.5323 15.4356 35.3101C15.4356 35.8663 15.3164 36.429 15.09 36.9377L11.653 44.6708L8.21594 36.9377ZM12.1916 49.2441C11.987 49.4034 11.8057 49.5937 11.653 49.8091C11.5002 49.5937 11.319 49.4034 11.1144 49.2441C11.319 49.0849 11.5002 48.8945 11.653 48.6791C11.8056 48.8945 11.987 49.0849 12.1916 49.2441ZM8.21594 61.5506L11.653 53.8176L15.09 61.5506C15.3164 62.0593 15.4356 62.6218 15.4356 63.1781C15.4356 63.9559 14.9844 64.6367 14.338 64.8341C13.8135 64.9978 13.2711 64.909 12.852 64.5988C12.4335 64.2896 12.1933 63.8136 12.1933 63.2943C12.1933 62.6441 12.6103 62.4289 12.7896 62.3665C13.0677 62.2695 13.3326 62.3254 13.4182 62.434C13.4904 62.5258 13.483 62.777 13.2239 63.1844C13.0635 63.4356 13.1369 63.7701 13.3887 63.9306C13.6425 64.0911 13.9754 64.0171 14.1348 63.7649C14.8251 62.6831 14.4567 62.0055 14.2662 61.7638C13.8745 61.2698 13.139 61.102 12.435 61.3458C12.3547 61.3735 12.2737 61.408 12.1933 61.4488V60.0819L12.1944 60.0833C12.2107 60.3672 12.4461 60.592 12.7337 60.592C13.0323 60.592 13.274 60.3503 13.274 60.0517C13.274 59.6992 13.0276 59.0879 12.1933 58.8984V57.8901C12.1933 57.5914 11.9516 57.3497 11.653 57.3497C11.3543 57.3497 11.1126 57.5914 11.1126 57.8901V58.8984C10.2784 59.0879 10.0319 59.6992 10.0319 60.0517C10.0319 60.3503 10.2731 60.61 10.5712 60.61C10.8699 60.61 11.1105 60.3862 11.1105 60.0875C11.1107 60.0865 11.1123 60.0854 11.1123 60.0854L11.1126 61.4486C11.0323 61.4078 10.9513 61.3734 10.8709 61.3456C10.1669 61.1018 9.43076 61.2697 9.03982 61.7636C8.84928 62.0053 8.48102 62.6829 9.17131 63.7647C9.3318 64.0159 9.66525 64.0887 9.9175 63.9305C10.1692 63.77 10.2425 63.4355 10.0822 63.1843C9.82311 62.7768 9.81572 62.5256 9.88797 62.4339C9.97287 62.3252 10.2379 62.2691 10.5166 62.3664C10.696 62.4286 11.1128 62.6439 11.1128 63.2941C11.1128 63.8134 10.8727 64.2894 10.4542 64.5986C10.0346 64.9089 9.49264 64.9976 8.96811 64.834C8.32158 64.6366 7.87053 63.9559 7.87053 63.1779C7.87018 62.6218 7.98953 62.0593 8.21594 61.5506ZM12.1969 65.4557C11.9835 65.6157 11.8082 65.8115 11.653 66.0224C11.4978 65.8115 11.3223 65.6155 11.1091 65.4557C11.3225 65.2957 11.4978 65.0999 11.653 64.889C11.808 65.0999 11.9835 65.2957 12.1969 65.4557ZM8.21594 69.3609C7.98953 68.8522 7.87035 68.2895 7.87035 67.7333C7.87035 66.9555 8.32158 66.2747 8.96793 66.0773C9.49299 65.9147 10.0349 66.0024 10.454 66.3126C10.8725 66.6218 11.1126 67.0979 11.1126 67.6171C11.1126 68.2673 10.6957 68.4827 10.5164 68.5449C10.2378 68.6419 9.97287 68.586 9.88779 68.4774C9.81555 68.3856 9.82293 68.1343 10.082 67.727C10.2425 67.4758 10.169 67.1413 9.91732 66.9808C9.66508 66.8224 9.33215 66.8964 9.17113 67.1466C8.48084 68.2285 8.84928 68.9059 9.03965 69.1476C9.43076 69.6416 10.1669 69.8116 10.8708 69.5657C10.9511 69.5377 11.0321 69.5034 11.1125 69.4626V70.8293C11.1123 70.829 11.1116 70.8285 11.1116 70.8285C11.0951 70.544 10.8597 70.3192 10.5721 70.3192C10.2735 70.3192 10.0318 70.5609 10.0318 70.8596C10.0318 71.2122 10.2782 71.8234 11.1125 72.0129V73.0212C11.1125 73.3198 11.3542 73.5615 11.6528 73.5615C11.9515 73.5615 12.1932 73.3198 12.1932 73.0212V72.0129C13.0274 71.8234 13.2739 71.212 13.2739 70.8596C13.2739 70.5609 13.0327 70.3013 12.7346 70.3013C12.4359 70.3013 12.1953 70.5251 12.1953 70.8237C12.1951 70.8248 12.1935 70.8258 12.1932 70.8269V69.4626C12.2735 69.5034 12.3545 69.5379 12.4349 69.5657C13.1389 69.8116 13.8745 69.6416 14.266 69.1476C14.4565 68.9059 14.8248 68.2283 14.1347 67.1466C13.9742 66.8954 13.6407 66.8215 13.3885 66.9808C13.1368 67.1413 13.0635 67.4758 13.2238 67.727C13.4829 68.1344 13.4903 68.3856 13.418 68.4774C13.3326 68.586 13.0677 68.6421 12.7894 68.5449C12.6099 68.4827 12.1932 68.2673 12.1932 67.6171C12.1932 67.0979 12.4333 66.6218 12.8518 66.3126C13.2714 66.0024 13.8144 65.9136 14.3379 66.0773C14.9844 66.2747 15.4354 66.9555 15.4354 67.7333C15.4354 68.2895 15.3163 68.8522 15.0899 69.3609L11.6528 77.0938L8.21594 69.3609ZM11.653 82.2321C11.5002 82.0168 11.319 81.8264 11.1144 81.6671C11.319 81.5079 11.5002 81.3175 11.653 81.1022C11.8057 81.3175 11.987 81.5079 12.1916 81.6671C11.987 81.8264 11.8056 82.0168 11.653 82.2321Z" fill="#FFE15A"/>
<path d="M51.5137 54.3121C57.1793 54.3121 61.7723 49.7192 61.7723 44.0535C61.7723 38.3879 57.1793 33.7949 51.5137 33.7949C45.848 33.7949 41.2551 38.3879 41.2551 44.0535C41.2551 49.7192 45.848 54.3121 51.5137 54.3121Z" fill="#FFE15A"/>
<path d="M52.2825 30.9723C52.2825 31.3972 51.938 31.7417 51.5131 31.7417C51.0883 31.7417 50.7438 31.3972 50.7438 30.9723C50.7438 30.5474 51.5131 28.6639 51.5131 28.6639C51.5131 28.6639 52.2825 30.5474 52.2825 30.9723Z" fill="#FFE15A"/>
<path d="M50.7438 57.1332C50.7438 56.7083 51.0883 56.3638 51.5131 56.3638C51.9382 56.3638 52.2825 56.7083 52.2825 57.1332C52.2825 57.5582 51.5131 59.4415 51.5131 59.4415C51.5131 59.4415 50.7438 57.5582 50.7438 57.1332Z" fill="#FFE15A"/>
<path d="M64.5935 44.8224C64.1687 44.8224 63.8242 44.4778 63.8242 44.053C63.8242 43.6281 64.1687 43.2836 64.5935 43.2836C65.0186 43.2836 66.9019 44.053 66.9019 44.053C66.9019 44.053 65.0186 44.8224 64.5935 44.8224Z" fill="#FFE15A"/>
<path d="M38.4327 43.2833C38.8576 43.2833 39.2021 43.6279 39.2021 44.0527C39.2021 44.4776 38.8576 44.8221 38.4327 44.8221C38.0079 44.8221 36.1244 44.0527 36.1244 44.0527C36.1244 44.0527 38.0079 43.2833 38.4327 43.2833Z" fill="#FFE15A"/>
<path d="M61.3064 35.3477C61.006 35.6481 60.5188 35.6481 60.2184 35.3477C59.918 35.0473 59.918 34.56 60.2184 34.2596C60.5188 33.959 62.3947 33.1715 62.3947 33.1715C62.3947 33.1715 61.607 35.0471 61.3064 35.3477Z" fill="#FFE15A"/>
<path d="M41.7198 52.758C42.0203 52.4576 42.5075 52.4576 42.8079 52.758C43.1083 53.0586 43.1083 53.5457 42.8079 53.8461C42.5075 54.1465 40.6316 54.9342 40.6316 54.9342C40.6316 54.9342 41.4194 53.0586 41.7198 52.758Z" fill="#FFE15A"/>
<path d="M60.2184 53.8461C59.918 53.5457 59.918 53.0584 60.2184 52.758C60.5188 52.4576 61.006 52.4576 61.3064 52.758C61.6069 53.0586 62.3945 54.9344 62.3945 54.9344C62.3945 54.9344 60.5188 54.1467 60.2184 53.8461Z" fill="#FFE15A"/>
<path d="M42.8079 34.2594C43.1083 34.5598 43.1083 35.0471 42.8079 35.3475C42.5075 35.6479 42.0203 35.6479 41.7198 35.3475C41.4194 35.0471 40.6318 33.1711 40.6318 33.1711C40.6318 33.1711 42.5075 33.959 42.8079 34.2594Z" fill="#FFE15A"/>
<path d="M47.2185 31.6737C47.3811 32.0664 47.1947 32.5164 46.802 32.679C46.4095 32.8416 45.9593 32.6553 45.7967 32.2626C45.6341 31.8701 45.6243 29.8356 45.6243 29.8356C45.6243 29.8356 47.0557 31.281 47.2185 31.6737Z" fill="#FFE15A"/>
<path d="M55.808 56.432C55.6454 56.0395 55.8317 55.5893 56.2244 55.4267C56.617 55.2641 57.0671 55.4504 57.2297 55.8431C57.3923 56.2356 57.4022 58.2701 57.4022 58.2701C57.4022 58.2701 55.9706 56.8245 55.808 56.432Z" fill="#FFE15A"/>
<path d="M63.8924 39.7581C63.4998 39.9207 63.0497 39.7344 62.8871 39.3417C62.7245 38.949 62.9108 38.499 63.3035 38.3364C63.696 38.1738 65.7305 38.1639 65.7305 38.1639C65.7305 38.1639 64.2849 39.5955 63.8924 39.7581Z" fill="#FFE15A"/>
<path d="M39.1341 48.3476C39.5266 48.185 39.9768 48.3713 40.1394 48.764C40.302 49.1565 40.1157 49.6067 39.723 49.7693C39.3305 49.9319 37.296 49.9417 37.296 49.9417C37.296 49.9417 38.7414 48.5102 39.1341 48.3476Z" fill="#FFE15A"/>
<path d="M57.2297 32.2626C57.0671 32.6553 56.6169 32.8416 56.2244 32.679C55.8319 32.5164 55.6454 32.0662 55.808 31.6737C55.9706 31.2812 57.4022 29.8356 57.4022 29.8356C57.4022 29.8356 57.3923 31.8699 57.2297 32.2626Z" fill="#FFE15A"/>
<path d="M45.7967 55.8431C45.9593 55.4504 46.4095 55.2641 46.802 55.4267C47.1946 55.5893 47.3811 56.0395 47.2185 56.432C47.0559 56.8245 45.6243 58.2701 45.6243 58.2701C45.6243 58.2701 45.634 56.2356 45.7967 55.8431Z" fill="#FFE15A"/>
<path d="M63.3035 49.7693C62.911 49.6067 62.7245 49.1565 62.8871 48.764C63.0497 48.3715 63.4998 48.185 63.8924 48.3476C64.2849 48.5102 65.7305 49.9417 65.7305 49.9417C65.7305 49.9417 63.696 49.9319 63.3035 49.7693Z" fill="#FFE15A"/>
<path d="M39.723 38.3364C40.1155 38.499 40.302 38.9492 40.1394 39.3417C39.9768 39.7342 39.5266 39.9207 39.1341 39.7581C38.7414 39.5955 37.296 38.1639 37.296 38.1639C37.296 38.1639 39.3303 38.1738 39.723 38.3364Z" fill="#FFE15A"/>
<path d="M49.716 31.0736C49.7989 31.4904 49.5282 31.8954 49.1114 31.9784C48.6947 32.0613 48.2897 31.7906 48.2067 31.3738C48.1237 30.9571 48.511 28.9598 48.511 28.9598C48.511 28.9598 49.633 30.6568 49.716 31.0736Z" fill="#FFE15A"/>
<path d="M53.3103 57.0319C53.2274 56.6151 53.4981 56.2101 53.9148 56.1271C54.3316 56.0442 54.7366 56.3149 54.8196 56.7316C54.9026 57.1484 54.5153 59.1456 54.5153 59.1456C54.5153 59.1456 53.3933 57.4487 53.3103 57.0319Z" fill="#FFE15A"/>
<path d="M64.4923 42.2555C64.0755 42.3385 63.6705 42.0678 63.5876 41.651C63.5046 41.2342 63.7753 40.8291 64.1921 40.7463C64.6088 40.6633 66.6061 41.0505 66.6061 41.0505C66.6061 41.0505 64.9091 42.1727 64.4923 42.2555Z" fill="#FFE15A"/>
<path d="M38.534 45.8502C38.9508 45.7672 39.3559 46.0379 39.4387 46.4547C39.5217 46.8714 39.251 47.2764 38.8342 47.3594C38.4174 47.4424 36.4202 47.0551 36.4202 47.0551C36.4202 47.0551 38.1172 45.9329 38.534 45.8502Z" fill="#FFE15A"/>
<path d="M59.42 33.6044C59.1839 33.9577 58.7061 34.0528 58.3528 33.8167C57.9995 33.5806 57.9044 33.1029 58.1404 32.7495C58.3765 32.3962 60.0626 31.2577 60.0626 31.2577C60.0626 31.2577 59.656 33.2511 59.42 33.6044Z" fill="#FFE15A"/>
<path d="M43.6063 54.5014C43.8424 54.1481 44.3202 54.053 44.6735 54.289C45.0268 54.5251 45.1219 55.0029 44.8858 55.3562C44.6498 55.7095 42.9637 56.8481 42.9637 56.8481C42.9637 56.8481 43.3703 54.8547 43.6063 54.5014Z" fill="#FFE15A"/>
<path d="M61.9616 51.9595C61.6083 51.7235 61.5132 51.2457 61.7492 50.8924C61.9853 50.539 62.4631 50.4439 62.8164 50.68C63.1697 50.9161 64.3083 52.6022 64.3083 52.6022C64.3083 52.6022 62.3149 52.1958 61.9616 51.9595Z" fill="#FFE15A"/>
<path d="M41.0647 36.146C41.418 36.382 41.5131 36.8598 41.277 37.2131C41.041 37.5664 40.5632 37.6615 40.2099 37.4255C39.8566 37.1894 38.718 35.5033 38.718 35.5033C38.718 35.5033 40.7114 35.9099 41.0647 36.146Z" fill="#FFE15A"/>
<path d="M44.8858 32.7495C45.1219 33.1029 45.0268 33.5806 44.6735 33.8167C44.3202 34.0528 43.8424 33.9577 43.6063 33.6044C43.3703 33.2511 42.9637 31.2577 42.9637 31.2577C42.9637 31.2577 44.6498 32.396 44.8858 32.7495Z" fill="#FFE15A"/>
<path d="M58.1404 55.3562C57.9044 55.0029 57.9995 54.5251 58.3528 54.289C58.7061 54.053 59.1839 54.1481 59.42 54.5014C59.656 54.8547 60.0626 56.8481 60.0626 56.8481C60.0626 56.8481 58.3765 55.7095 58.1404 55.3562Z" fill="#FFE15A"/>
<path d="M62.8166 37.4255C62.4633 37.6615 61.9855 37.5664 61.7494 37.2131C61.5133 36.8598 61.6084 36.382 61.9618 36.146C62.3151 35.9099 64.3084 35.5033 64.3084 35.5033C64.3084 35.5033 63.1699 37.1894 62.8166 37.4255Z" fill="#FFE15A"/>
<path d="M40.2097 50.68C40.563 50.4439 41.0408 50.539 41.2769 50.8924C41.5129 51.2457 41.4179 51.7235 41.0645 51.9595C40.7112 52.1956 38.7178 52.6022 38.7178 52.6022C38.7178 52.6022 39.8564 50.9161 40.2097 50.68Z" fill="#FFE15A"/>
<path d="M54.8198 31.3738C54.7368 31.7906 54.3318 32.0613 53.915 31.9784C53.4982 31.8954 53.2275 31.4904 53.3105 31.0736C53.3935 30.6568 54.5155 28.9598 54.5155 28.9598C54.5155 28.9598 54.9026 30.9571 54.8198 31.3738Z" fill="#FFE15A"/>
<path d="M48.2067 56.7319C48.2897 56.3151 48.6947 56.0444 49.1114 56.1274C49.5282 56.2103 49.7989 56.6153 49.716 57.0321C49.633 57.4489 48.511 59.1459 48.511 59.1459C48.511 59.1459 48.1237 57.1487 48.2067 56.7319Z" fill="#FFE15A"/>
<path d="M64.1921 47.3594C63.7753 47.2764 63.5046 46.8714 63.5876 46.4547C63.6705 46.0379 64.0755 45.7672 64.4923 45.8502C64.9091 45.9331 66.6061 47.0551 66.6061 47.0551C66.6061 47.0551 64.6088 47.4422 64.1921 47.3594Z" fill="#FFE15A"/>
<path d="M38.8342 40.7463C39.251 40.8292 39.5217 41.2342 39.4387 41.651C39.3558 42.0678 38.9508 42.3385 38.534 42.2555C38.1172 42.1726 36.4202 41.0505 36.4202 41.0505C36.4202 41.0505 38.4174 40.6633 38.8342 40.7463Z" fill="#FFE15A"/>
<path d="M75.6444 46.752C75.344 46.6256 75.0003 46.7705 74.8752 47.0691C74.8752 47.0703 74.8752 47.0703 74.8752 47.0703C74.8729 47.0761 74.8615 47.1037 74.8412 47.1509C74.3965 48.1895 73.4767 49.7076 72.5477 51.1358C73.4128 48.3504 74.204 45.3755 74.2592 45.1663C74.342 44.8537 74.1569 44.5331 73.8449 44.448C73.5324 44.3642 73.2112 44.5458 73.1239 44.8571C72.7199 46.3038 71.8943 48.2078 71.1324 49.8199C71.272 48.0227 71.2986 46.3577 71.3001 46.2371C71.3047 45.9188 71.0554 45.6557 70.7371 45.6407C70.4378 45.6499 70.1488 45.8682 70.1252 46.1865C69.372 56.549 59.4008 61.1844 58.43 61.6106C57.9221 61.6612 55.5561 61.9277 53.4084 62.6736C53.1648 62.7583 52.9577 62.8428 52.751 62.9269C52.6744 62.8982 52.5919 62.882 52.5053 62.8873C45.9142 63.3642 40.6588 60.6603 36.8818 54.8678C34.028 50.491 33.1329 45.897 33.1243 45.851C33.064 45.5316 32.7583 45.3259 32.4372 45.3821C32.1178 45.443 31.9081 45.7499 31.9684 46.0693C31.9923 46.196 32.3848 48.2013 33.4666 50.8403C32.0195 48.556 31.0112 45.7887 30.6562 44.3478C30.6491 44.319 30.6307 44.2972 30.6198 44.2705C30.6033 44.2297 30.5892 44.1889 30.5648 44.1536C30.5474 44.1286 30.5249 44.1104 30.5041 44.0887C30.472 44.0548 30.441 44.0216 30.402 43.9963C30.3795 43.9817 30.3542 43.9745 30.3299 43.9631C30.2863 43.9428 30.244 43.9228 30.1956 43.9138C30.1622 43.9073 30.1278 43.9116 30.0931 43.911C30.058 43.9107 30.0246 43.9015 29.9886 43.9079C29.9806 43.9091 29.9747 43.9144 29.9668 43.9161C29.9592 43.9175 29.9518 43.9151 29.9443 43.917C29.9128 43.9247 29.8887 43.9444 29.8599 43.9567C29.8231 43.9726 29.7855 43.9845 29.7534 44.0068C29.7217 44.0286 29.6982 44.0569 29.6716 44.0842C29.6454 44.1112 29.6177 44.135 29.5971 44.1663C29.5762 44.1981 29.5647 44.2338 29.5502 44.2691C29.5359 44.3036 29.5196 44.3359 29.512 44.3732C29.5043 44.4113 29.5078 44.4505 29.508 44.4901C29.508 44.5219 29.4994 44.5521 29.5048 44.5846C29.5071 44.5983 29.5117 44.6124 29.5139 44.6261V44.6282C29.5146 44.6309 29.5155 44.6342 29.5162 44.6365C29.8801 46.7808 30.7476 49.0038 31.5317 50.6988C30.2862 49.2855 29.2457 47.6573 28.8767 46.6931C28.866 46.665 28.8447 46.6455 28.8303 46.6202C28.8084 46.5811 28.7894 46.5414 28.7598 46.5093C28.7391 46.4864 28.7134 46.4715 28.6897 46.4523C28.654 46.4236 28.6199 46.3945 28.5786 46.3748C28.5521 46.3621 28.5234 46.3581 28.4953 46.3495C28.4519 46.3363 28.4099 46.3219 28.3636 46.3192C28.3272 46.3168 28.2914 46.3259 28.2546 46.3307C28.2207 46.3351 28.1871 46.3307 28.1532 46.3412C28.1467 46.3433 28.1423 46.3484 28.136 46.3507C28.1297 46.3526 28.1233 46.3516 28.117 46.3539C28.085 46.3662 28.0623 46.3897 28.0337 46.4066C28.0001 46.4266 27.9644 46.4428 27.936 46.4685C27.9066 46.4948 27.8866 46.5272 27.8635 46.5585C27.8417 46.5878 27.8173 46.6144 27.8013 46.6471C27.7844 46.6815 27.7783 46.719 27.7684 46.7559C27.7588 46.7921 27.7459 46.826 27.7435 46.864C27.7408 46.9019 27.7502 46.9397 27.7553 46.9784C27.7597 47.0116 27.7551 47.0447 27.7655 47.0777C28.4055 49.1426 29.9453 51.5993 31.1512 53.3299C30.1462 52.5554 29.4074 51.7177 29.1931 51.4649C29.1701 51.4373 29.1473 51.4097 29.1242 51.3821C28.9168 51.1327 28.5503 51.0971 28.2991 51.3005C28.0486 51.5051 28.0096 51.8727 28.2118 52.1244C28.2227 52.1381 28.267 52.1933 28.3404 52.2796C29.2229 53.3299 30.1847 54.3101 31.0557 55.1375L29.8641 54.6296C29.5923 54.5124 29.2729 54.6182 29.1241 54.8766C28.9754 55.1352 29.0425 55.4627 29.2809 55.642C29.3969 55.7281 31.5071 57.3047 33.3342 58.2365C33.1618 58.2469 32.9596 58.2342 32.7332 58.217C32.4569 58.1906 32.1851 58.3882 32.1178 58.6686C32.0517 58.9502 32.1988 59.2374 32.466 59.3476C32.5108 59.3661 33.0675 59.5958 33.7552 59.8405C33.5949 59.9061 33.4674 60.0404 33.4145 60.2151C33.3353 60.476 33.4467 60.7586 33.6835 60.8941C33.745 60.9298 34.577 61.4067 35.6058 61.8295C35.5782 61.872 35.5559 61.9179 35.5392 61.9685C35.4587 62.2155 35.5506 62.4867 35.7651 62.6351C35.9437 62.7579 39.9397 65.4699 44.6067 65.4699C44.9129 65.4699 45.2226 65.4585 45.5339 65.4332C45.8574 65.4078 46.0993 65.124 46.0734 64.8C46.0476 64.476 45.7667 64.2312 45.4397 64.2611C42.5079 64.5001 39.6834 63.3992 38.0035 62.5581C38.2253 62.5041 38.3528 62.4547 38.3844 62.4421C38.6435 62.3364 38.7929 62.064 38.7423 61.7894C38.6917 61.5148 38.4551 61.3137 38.1752 61.3079C37.4932 61.2942 36.5487 60.962 35.7352 60.6059C36.0426 60.4519 36.2218 60.3047 36.2379 60.2921C36.4149 60.1439 36.4896 59.9071 36.4292 59.6842C36.3684 59.4624 36.1833 59.2958 35.9558 59.259C35.7058 59.2177 35.3945 59.1372 35.0681 59.0384C35.3852 58.8558 35.5202 58.6547 35.5721 58.5524C35.6536 58.3893 35.6554 58.1985 35.5772 58.0342C35.4984 57.8698 35.3485 57.7515 35.1704 57.7136C35.0164 57.6802 34.8424 57.6239 34.654 57.5504C34.6884 57.516 34.7201 57.4769 34.7459 57.4321C34.8958 57.1781 34.8338 56.8519 34.6011 56.6691C34.5889 56.6599 34.1322 56.3013 33.4411 55.7049C33.5508 55.6646 33.648 55.5899 33.7179 55.4889C33.8661 55.2751 33.8559 54.9889 33.6931 54.7868C33.6801 54.7706 33.2228 54.1956 32.5926 53.3224C32.8005 53.4839 33.0087 53.649 33.2162 53.7824C33.314 53.8444 33.4247 53.8755 33.5346 53.8755C33.6833 53.8755 33.8304 53.8193 33.9436 53.7101C33.9902 53.6651 34.0266 53.6133 34.0553 53.5581C34.4121 53.9394 34.7872 54.2856 35.1811 54.5811C35.2325 54.6196 35.2947 54.6187 35.3525 54.6381C35.5193 54.9178 35.6932 55.1983 35.8751 55.4785C39.4477 60.9755 44.4851 63.92 50.527 64.0967C49.9707 64.4345 49.3669 64.7836 48.4104 65.156C48.2018 65.2372 48.0174 65.3189 47.8318 65.4005C47.7423 65.418 47.6583 65.4504 47.5881 65.5059C45.9191 66.2787 45.2281 67.0419 44.9475 67.5759C44.6677 68.1068 44.909 68.6515 45.2509 68.9342C45.3573 69.0216 45.4923 69.0664 45.6278 69.0664C45.7208 69.0664 45.814 69.0456 45.8985 69.0031C46.1065 68.8997 46.2455 68.6802 46.2364 68.4492C46.2604 68.4228 46.3628 68.3378 46.6834 68.3274C46.9172 68.3079 47.409 68.3608 47.9829 68.4067C48.5289 68.4517 49.1839 68.5027 49.8803 68.5385C49.4447 69.0463 48.9383 69.635 48.9383 69.635C48.7861 69.812 48.7527 70.0625 48.8539 70.2728C48.9557 70.4842 49.1745 70.6152 49.4043 70.6071C49.8691 70.5909 50.1851 70.5818 50.3925 70.5772C50.5736 70.814 50.7953 70.9082 50.9383 70.945C51.3428 71.0483 51.7461 70.8864 52.05 70.6945C52.2797 70.8599 52.5096 70.93 52.6918 70.9564C53.1026 71.0126 53.4829 70.8933 53.758 70.7576C54.043 70.9414 54.3223 70.9886 54.5348 70.9886C54.5376 70.9886 54.5411 70.9886 54.5445 70.9886C55.0036 70.9863 55.4051 70.7644 55.6895 70.5473C55.9405 70.6968 56.1807 70.7449 56.3663 70.753C56.7875 70.7679 57.1367 70.6059 57.3689 70.4542C58.1979 70.6208 58.9127 70.2301 59.385 69.7992C59.6005 69.9246 59.8056 69.9555 59.9687 69.9474C60.3887 69.9325 60.7088 69.6774 60.9139 69.4487C61.8538 69.5624 62.5283 69.3889 62.9185 68.9259C63.1311 68.6742 63.2174 68.3905 63.2409 68.1319C65.8488 68.117 66.0849 66.6933 66.1039 66.5176C66.1211 66.3578 66.0722 66.1982 65.9683 66.0751C65.865 65.9522 65.715 65.8763 65.5547 65.8672L58.7177 65.4558C58.4315 65.4351 58.1765 65.627 58.1099 65.9064C58.1086 65.9109 57.9921 66.3453 57.6272 66.6923C57.1364 67.1607 56.3462 67.4084 55.4865 67.5394C55.4898 67.4606 55.4786 67.3805 55.4485 67.3024C55.3313 66.999 54.9901 66.8519 54.6878 66.9658C53.2762 67.5135 50.9909 67.4446 49.203 67.3202C49.4774 67.0959 49.8074 66.8742 50.0712 66.7292C50.2941 66.6063 50.4136 66.3546 50.3665 66.1041C50.3322 65.9222 50.2008 65.7956 50.042 65.7141C50.5393 65.4632 50.9468 65.2206 51.3335 64.9847C52.0046 64.5734 52.6388 64.1862 53.7937 63.785C56.023 63.0105 58.6026 62.775 58.6284 62.7727C58.687 62.7681 58.7444 62.7532 58.7991 62.7314C58.891 62.6934 66.1675 59.645 69.5959 52.6115C69.5511 52.824 69.5028 53.0183 69.4506 53.1884C69.3609 53.4779 69.5058 53.7871 69.7849 53.9044C70.0009 53.9951 70.2463 53.948 70.4123 53.794C70.1957 54.3651 69.9997 54.8144 69.8401 55.0798C69.677 55.3498 69.7557 55.7003 70.0182 55.8751C70.0797 55.9153 70.1458 55.9429 70.2135 55.9589C69.948 56.3474 69.6791 56.7149 69.4108 57.0517C69.2321 57.2759 69.2424 57.5953 69.4293 57.8067C68.9686 58.2892 68.5601 58.6868 68.2498 58.9396C68.047 59.104 67.9809 59.3786 68.074 59.613C67.7747 59.7843 67.5287 59.9048 67.3581 59.9565C67.0719 60.0427 66.8961 60.3311 66.9501 60.6254C66.9782 60.7804 67.0656 60.9115 67.1862 60.9977C66.8265 61.0942 66.4329 61.1873 66.0054 61.2722C65.7646 61.3204 65.5792 61.5124 65.5394 61.7548C65.5004 61.9972 65.6152 62.2385 65.8284 62.3603C65.8469 62.3707 66.0478 62.4844 66.3552 62.6154C65.217 63.0738 63.1848 63.6725 59.8503 64.0012C59.5274 64.0334 59.2906 64.3219 59.3229 64.6448C59.3546 64.9677 59.6337 65.1918 59.9665 65.1734C66.2967 64.547 68.2514 62.9626 68.3312 62.8947C68.5138 62.7419 68.5862 62.4925 68.5138 62.2651C68.4655 62.1146 68.3598 61.9928 68.2243 61.9226C70.2467 61.2861 71.1149 60.5816 71.1602 60.5438C71.382 60.3599 71.4378 60.0416 71.2919 59.7923C71.1447 59.5429 70.8385 59.435 70.5713 59.5429C70.4961 59.5716 70.3761 59.6014 70.2244 59.6313C71.5814 58.7016 73.0224 57.5951 73.6561 57.101C73.7676 57.0182 73.8687 56.9389 73.9578 56.8642C74.2037 56.6573 74.2381 56.292 74.0353 56.0426C73.8337 55.7944 73.4665 55.7531 73.2149 55.9519C73.123 56.0243 73.0277 56.099 72.9287 56.176C72.6362 56.3933 72.2622 56.639 71.8544 56.8919C73.3947 55.1431 74.9453 53.2471 75.3883 52.7024C75.4285 52.653 75.4681 52.6036 75.5083 52.5542C75.7117 52.3014 75.672 51.9314 75.4192 51.728C75.1659 51.5211 74.7952 51.5637 74.5925 51.8154L74.5913 51.8166L74.5908 51.8178C74.5799 51.8305 74.5298 51.8926 74.4459 51.9959C73.9817 52.5625 73.4934 53.1105 73.0114 53.6229C74.5804 50.779 75.7685 47.9798 75.9427 47.565C75.949 47.5501 75.9548 47.5351 75.9611 47.5202C76.0861 47.2208 75.9443 46.8761 75.6444 46.752ZM48.0694 66.584L48.2301 66.6047C48.033 66.7888 47.8727 66.9955 47.7453 67.2086C47.4658 67.1861 47.2125 67.1664 47.0138 67.1574C47.2875 66.9786 47.6398 66.7846 48.0694 66.584Z" fill="#FFE15A"/>
</g>
<rect x="2" y="2" width="94" height="94" rx="47" stroke="white" stroke-opacity="0.1" stroke-width="4"/>
<defs>
<clipPath id="clip0_2309_4118">
<rect x="4" y="4" width="90" height="90" rx="45" fill="white"/>
</clipPath>
</defs>
</svg>
