<svg width="56" height="56" viewBox="0 0 56 56" fill="none" xmlns="http://www.w3.org/2000/svg">
<path id="Logo icon" d="M48.5071 32.2374C50.6956 32.467 53.5572 34.0242 55.656 32.3922C52.6648 31.8531 49.7135 30.3109 46.9566 29.2777C49.7833 28.1098 53.5223 30.4806 56 28.005C52.954 27.9401 49.8082 26.882 46.9217 26.2881C49.534 24.6959 53.5971 26.4528 55.656 23.6178C52.6349 24.0321 49.3646 23.4781 46.4182 23.3483C48.7514 21.3519 53.0387 22.4599 54.629 19.3554C51.7126 20.2439 48.3924 20.2039 45.466 20.5383C47.4602 18.2125 51.8622 18.6267 52.944 15.2927C50.1971 16.6203 46.9168 17.1095 44.0751 17.8931C45.6804 15.2827 50.0974 15.0032 50.6458 11.5394C48.1531 13.2863 44.9775 14.2795 42.2954 15.4973C43.4719 12.6674 47.7792 11.6991 47.7792 8.19536C45.5807 10.3066 42.6095 11.784 40.1517 13.4111C40.8696 10.4164 44.9874 8.79929 44.4391 5.33547C42.5995 7.77112 39.8925 9.69269 37.7189 11.6841C37.9631 8.62959 41.7719 6.37362 40.7101 3.03957C39.2743 5.72478 36.9013 8.03066 35.0667 10.3565C34.8324 7.30196 38.2373 4.47701 36.652 1.37255C35.6549 4.2574 33.6608 6.92264 32.2201 9.48806C31.5122 6.4934 34.4335 3.18431 32.3746 0.344384C31.8412 3.33904 30.3007 6.29376 29.2688 9.05383C28.1022 6.22389 30.4702 2.48057 27.9975 0C27.9327 3.04955 26.8758 6.19893 26.2826 9.08877C24.6922 6.47344 26.4471 2.4057 23.6154 0.344384C24.0292 3.36898 23.4758 6.64813 23.3462 9.59287C21.3521 7.25704 22.4588 2.96471 19.358 1.37255C20.2404 4.29234 20.2055 7.6164 20.5395 10.5462C18.2163 8.54973 18.6301 4.1426 15.2999 3.05954C16.626 5.80464 17.1146 9.09376 17.8973 11.9337C15.265 10.2866 14.9659 5.86453 11.526 5.31551C13.2659 7.81105 14.263 10.9904 15.4794 13.6756C12.6527 12.4977 11.6856 8.18538 8.18588 8.18538C10.2947 10.3865 11.7703 13.3611 13.3955 15.8217C10.4043 15.103 8.7891 10.9854 5.3293 11.5294C7.75714 13.3711 9.68147 16.0813 11.6706 18.2574C8.6196 18.0128 6.36624 14.1996 3.03605 15.2627C5.71815 16.7002 8.02137 19.0759 10.3445 20.9127C7.29351 21.1472 4.47182 17.7383 1.37096 19.3255C4.25247 20.3237 6.91463 22.3201 9.47708 23.7676C6.48589 24.4763 3.18063 21.5465 0.343986 23.6078C3.33517 24.1419 6.28648 25.6841 9.04335 26.7223C6.21668 27.8852 2.4777 25.5144 0 27.995C3.04603 28.0549 6.19176 29.118 9.07825 29.707C6.46595 31.2991 2.40292 29.5422 0.343986 32.3822C3.36508 31.9629 6.63545 32.5169 9.58177 32.6517C7.24864 34.6481 2.96127 33.5351 1.37096 36.6446C4.28737 35.7611 7.60759 35.7961 10.534 35.4617C8.53984 37.7875 4.13781 37.3733 3.056 40.7073C5.79792 39.3797 9.08324 38.8955 11.9199 38.107C10.3146 40.7173 5.89762 40.9968 5.34924 44.4606C7.84189 42.7187 11.0175 41.7255 13.6996 40.5027C12.5231 43.3326 8.21579 44.3009 8.21579 47.8046C10.4143 45.6934 13.3856 44.216 15.8433 42.589C15.1254 45.5836 11.0076 47.2007 11.556 50.6645C13.3955 48.2339 16.1026 46.3073 18.2761 44.3159C18.0319 47.3704 14.2231 49.6264 15.285 52.9654C16.7207 50.2752 19.0937 47.9494 20.9283 45.6435C21.1626 48.698 17.7577 51.523 19.343 54.6275C20.3401 51.7476 22.3342 49.0774 23.7749 46.5119C24.4829 49.5066 21.5615 52.8157 23.6204 55.6556C24.1538 52.661 25.6943 49.7062 26.7263 46.9462C27.8928 49.7811 25.5248 53.5194 28.0025 56C28.0623 52.9504 29.1192 49.8011 29.7125 46.9112C31.3028 49.5266 29.5479 53.5943 32.3796 55.6556C31.9658 52.631 32.5192 49.3569 32.6538 46.4121C34.6479 48.743 33.5362 53.0353 36.642 54.6275C35.7596 51.7077 35.7945 48.3836 35.4605 45.4538C37.7837 47.4503 37.3699 51.8574 40.7001 52.9405C39.374 50.1904 38.8854 46.9062 38.1027 44.0613C40.7101 45.6685 40.9892 50.0906 44.449 50.6396C42.7092 48.144 41.7121 44.9647 40.4957 42.2795C43.3223 43.4574 44.2895 47.7697 47.7892 47.7697C45.6804 45.5736 44.2048 42.5939 42.5795 40.1333C45.5707 40.8521 47.186 44.9747 50.6458 44.4257C48.2179 42.584 46.2936 39.8738 44.3045 37.6977C47.3555 37.9422 49.6088 41.7554 52.944 40.6923C50.2569 39.2549 47.9338 36.8792 45.6306 35.0424C48.6816 34.8078 51.5032 38.2168 54.6041 36.6296C51.7276 35.6314 49.0604 33.6349 46.498 32.1925C47.1507 32.0133 47.8395 32.0133 48.4921 32.1925M38.5564 34.4784L33.93 32.482L32.0655 37.1686L30.221 32.5319L25.5946 34.5283L27.5887 29.9016L22.9125 28.0349L27.5887 26.1683L25.5946 21.5365L30.221 23.533L32.0805 18.8463L33.945 23.528L38.5714 21.5316L36.5772 26.1633L41.2534 28.0299L36.5772 29.8966L38.5564 34.4784ZM31.7415 13.2463C23.7201 13.2463 16.7855 19.5002 16.7855 27.9251C16.7855 36.3501 23.8348 42.5989 31.7415 42.5989C35.552 42.6007 39.2255 41.1766 42.0411 38.6061C39.3341 42.9833 32.569 46.1276 28.7054 46.1276H25.9336C24.6215 45.9523 23.3213 45.6973 22.0401 45.364C19.328 44.5317 16.8429 43.0871 14.7765 41.1415C11.5011 38.1469 9.13808 32.5918 9.13808 29.103V26.7173C9.13808 25.1401 10.0454 22.0406 10.5738 20.7779C11.3602 18.8441 12.5016 17.075 13.9389 15.5622C18.1465 11.2 22.9424 9.70267 27.3245 9.70267C30.9728 9.68612 34.5402 10.7791 37.5543 12.8371C39.0499 13.8353 41.0889 15.682 42.076 17.2991C39.2765 14.6733 35.5776 13.2227 31.7415 13.2463Z" fill="white"/>
</svg>
