<svg width="98" height="98" viewBox="0 0 98 98" fill="none" xmlns="http://www.w3.org/2000/svg">
<g clip-path="url(#clip0_2309_180)">
<path d="M74.3125 4H23.6875C12.8144 4 4 12.8144 4 23.6875V74.3125C4 85.1856 12.8144 94 23.6875 94H74.3125C85.1856 94 94 85.1856 94 74.3125V23.6875C94 12.8144 85.1856 4 74.3125 4Z" fill="#73AF00"/>
<path d="M23.6875 4C19.2545 4 15.1639 5.46549 11.8732 7.93803V90.062C15.1639 92.5345 19.2545 94 23.6875 94H35.5573V4H23.6875Z" fill="#FF4B55"/>
<path d="M33.189 14.2632L28.4521 18.2106H18.9785L14.2415 14.2632V10.3159L18.9785 6.36853H28.4521L33.189 10.3159V14.2632Z" fill="#F5F5F5"/>
<path d="M33.189 47.4211L28.4521 51.3685H18.9785L14.2415 47.4211V43.4736L18.9785 39.5262H28.4521L33.189 43.4736V47.4211Z" fill="#73AF00"/>
<path d="M33.189 30.8421L28.4521 34.7895H18.9785L14.2415 30.8421V26.8948L18.9785 22.9473H28.4521L33.189 26.8948V30.8421Z" fill="#73AF00"/>
<path d="M33.189 63.9999L28.4521 67.9473H18.9785L14.2415 63.9999V60.0526L18.9785 56.1052H28.4521L33.189 60.0526V63.9999Z" fill="#73AF00"/>
<path d="M11.8732 15.842L16.61 20.579L11.8732 25.3158V15.842Z" fill="#FFB400"/>
<path d="M35.5573 25.3158L30.8205 20.579L35.5573 15.842V25.3158Z" fill="#FFB400"/>
<path d="M11.8732 32.421L16.61 37.158L11.8732 41.8947V32.421Z" fill="#FFB400"/>
<path d="M35.5573 41.8947L30.8205 37.158L35.5573 32.421V41.8947Z" fill="#FFB400"/>
<path d="M11.8732 49L16.61 53.7368L11.8732 58.4737V49Z" fill="#FFB400"/>
<path d="M35.5573 58.4737L30.8205 53.7368L35.5573 49V58.4737Z" fill="#FFB400"/>
<path d="M11.8732 65.579L16.61 70.3158L11.8732 75.0527V65.579Z" fill="#FFB400"/>
<path d="M35.5573 75.0527L30.8205 70.3158L35.5573 65.579V75.0527Z" fill="#FFB400"/>
<path d="M35.5573 8.73678L30.8205 4H35.5573V8.73678Z" fill="#FFB400"/>
<path d="M24.8993 22.9475H22.5309V34.7899H24.8993V22.9475Z" fill="#FFB400"/>
<path d="M28.4519 27.6848H18.9783V30.0533H28.4519V27.6848Z" fill="#FF4B55"/>
<path d="M30.8205 24.9211L28.4521 22.9474V34.7896L30.8205 32.8157V24.9211Z" fill="#FFB400"/>
<path d="M16.61 32.8157L18.9785 34.7894V22.9475L16.61 24.921V32.8157Z" fill="#FFB400"/>
<path d="M23.7153 6.36853H18.9785L14.2415 10.3157V12.2895H23.7153V6.36853Z" fill="#FFB400"/>
<path d="M23.7153 18.2106H28.4519L33.189 14.2634V12.2896H23.7153V18.2106Z" fill="#FFB400"/>
<path d="M23.7153 15.8421L18.9785 12.3034L23.7153 8.73682L28.452 12.3034L23.7153 15.8421Z" fill="#FF4B55"/>
<path d="M23.7153 15.8421L28.452 12.3034L28.4336 12.2896H23.7153V15.8421Z" fill="#73AF00"/>
<path d="M23.7153 12.2895V8.73682L18.997 12.2895H23.7153Z" fill="#73AF00"/>
<path d="M28.452 41.8949H18.9783V49H28.452V41.8949Z" fill="#FF4B55"/>
<path d="M30.8196 44.2627H28.4512V46.6312H30.8196V44.2627Z" fill="#FFB400"/>
<path d="M24.8993 44.2627H22.5309V46.6312H24.8993V44.2627Z" fill="#F5F5F5"/>
<path d="M24.8993 58.4729H22.5309V60.8414H24.8993V58.4729Z" fill="#FF4B55"/>
<path d="M28.4519 60.8424H26.0834V63.2109H28.4519V60.8424Z" fill="#FFB400"/>
<path d="M21.3468 60.8424H18.9783V63.2109H21.3468V60.8424Z" fill="#FFB400"/>
<path d="M24.8993 63.2102H22.5309V65.5787H24.8993V63.2102Z" fill="#FF4B55"/>
<path d="M18.979 44.2627H16.6105V46.6312H18.979V44.2627Z" fill="#FFB400"/>
<path d="M33.189 80.5789L28.4521 84.5262H18.9785L14.2415 80.5789V76.6315L18.9785 72.6842H28.4521L33.189 76.6315V80.5789Z" fill="#F5F5F5"/>
<path d="M23.7153 72.6842H18.9785L14.2415 76.6315V78.6052H23.7153V72.6842Z" fill="#FFB400"/>
<path d="M23.7153 84.5262H28.4519L33.189 80.5791V78.6052H23.7153V84.5262Z" fill="#FFB400"/>
<path d="M28.452 79.7895L23.7153 82.158L18.9785 79.7895V77.421L23.7153 75.0527L28.452 77.421V79.7895Z" fill="#FF4B55"/>
<path d="M68.0519 16.8964C67.7996 16.7725 67.5715 17.1006 67.7759 17.2935C70.4562 19.8228 72.15 23.3746 72.15 27.3366C72.15 35.1191 65.8945 41.363 58.2025 41.363C56.7825 41.363 55.4153 41.1415 54.1253 40.7385C53.8579 40.655 53.6851 41.0136 53.9152 41.1734C56.1641 42.7368 58.8749 43.671 61.8336 43.671C69.6276 43.671 75.9961 37.4266 75.9961 29.5312C75.9961 23.9821 72.7393 19.2003 68.0519 16.8964Z" fill="#F5F5F5"/>
<path d="M48.778 26.0344L48.1984 27.6734L49.5616 28.7523C49.7381 28.8921 49.6353 29.1759 49.4103 29.1701L47.6725 29.1255L47.0676 30.7553C46.9894 30.9663 46.6876 30.9563 46.6234 30.7404L46.129 29.0738L44.3921 29.0023C44.1672 28.993 44.0836 28.7027 44.269 28.5753L45.7013 27.5901L45.2327 25.9161C45.172 25.6993 45.4222 25.5301 45.6007 25.667L46.9805 26.7247L48.4277 25.7618C48.6149 25.6368 48.8531 25.8222 48.778 26.0344Z" fill="#F5F5F5"/>
<path d="M55.8168 29.5894L55.2373 31.2284L56.6003 32.3073C56.7767 32.4471 56.6739 32.7309 56.4489 32.7251L54.7111 32.6805L54.1063 34.3103C54.0281 34.5213 53.7261 34.5112 53.6621 34.2954L53.1676 32.6288L51.4307 32.5571C51.2059 32.5478 51.1222 32.2577 51.3077 32.1301L52.7399 31.1449L52.2713 29.4709C52.2106 29.2542 52.4608 29.0849 52.6394 29.2218L54.0191 30.2795L55.4663 29.3166C55.6535 29.1916 55.8919 29.3772 55.8168 29.5894Z" fill="#F5F5F5"/>
<path d="M55.7456 22.2661L55.1661 23.9051L56.5291 24.984C56.7055 25.1238 56.6027 25.4076 56.3777 25.4018L54.6399 25.3572L54.0351 26.987C53.9569 27.198 53.6549 27.188 53.5909 26.9721L53.0964 25.3055L51.3595 25.234C51.1347 25.2247 51.051 24.9344 51.2365 24.807L52.6686 23.8217L52.1999 22.1478C52.1393 21.931 52.3894 21.7618 52.568 21.8987L53.9477 22.9564L55.3949 21.9934C55.5825 21.8683 55.8207 22.0539 55.7456 22.2661Z" fill="#F5F5F5"/>
<path d="M55.9854 15.1978L55.4058 16.8368L56.769 17.9157C56.9455 18.0554 56.8427 18.3393 56.6177 18.3335L54.8799 18.2889L54.275 19.9186C54.1968 20.1295 53.8948 20.1195 53.8308 19.9036L53.3364 18.237L51.5995 18.1655C51.3746 18.1562 51.291 17.866 51.4764 17.7385L52.9085 16.7533L52.4399 15.0793C52.3792 14.8626 52.6294 14.6933 52.808 14.8302L54.1877 15.8879L55.6349 14.925C55.8222 14.8 56.0604 14.9856 55.9854 15.1978Z" fill="#F5F5F5"/>
<path d="M62.882 18.7528L62.3024 20.3918L63.6654 21.4708C63.8419 21.6105 63.7391 21.8944 63.5141 21.8886L61.7763 21.8439L61.1714 23.4738C61.0932 23.6847 60.7914 23.6747 60.7272 23.4588L60.2328 21.7923L58.4959 21.7205C58.2711 21.7112 58.1874 21.4212 58.3728 21.2936L59.8049 20.3083L59.3363 18.6343C59.2756 18.4176 59.5258 18.2483 59.7044 18.3853L61.0841 19.4429L62.5313 18.48C62.7187 18.355 62.957 18.5407 62.882 18.7528Z" fill="#F5F5F5"/>
</g>
<rect x="2" y="2" width="94" height="94" rx="47" stroke="white" stroke-opacity="0.1" stroke-width="4"/>
<defs>
<clipPath id="clip0_2309_180">
<rect x="4" y="4" width="90" height="90" rx="45" fill="white"/>
</clipPath>
</defs>
</svg>
