<svg width="98" height="98" viewBox="0 0 98 98" fill="none" xmlns="http://www.w3.org/2000/svg">
<g clip-path="url(#clip0_2309_2605)">
<path d="M74.3125 4H23.6875C12.8144 4 4 12.8144 4 23.6875V74.3125C4 85.1856 12.8144 94 23.6875 94H74.3125C85.1856 94 94 85.1856 94 74.3125V23.6875C94 12.8144 85.1856 4 74.3125 4Z" fill="#FF4B55"/>
<path d="M63.6736 44.4745L66.4268 48.0761L70.7257 46.6372C70.966 46.5567 71.1706 46.8286 71.0267 47.0373L68.452 50.7686L71.149 54.4125C71.2998 54.6162 71.1046 54.8947 70.8616 54.8223L66.5172 53.5268L63.885 57.2178C63.7379 57.4242 63.4127 57.3245 63.4066 57.071L63.2962 52.539L58.9725 51.1764C58.7308 51.1001 58.725 50.7601 58.9642 50.6759L63.2403 49.1705L63.2002 44.6373C63.1979 44.3837 63.5196 44.2733 63.6736 44.4745Z" fill="#F5F5F5"/>
<path d="M48.4485 64.5526C40.6897 64.5526 34.3956 58.2586 34.3956 50.4928C34.3956 42.7412 40.6897 36.4331 48.4485 36.4331C51.3352 36.4331 53.9974 37.3209 56.2157 38.8235C56.5555 39.0536 56.9433 38.6071 56.6587 38.3115C53.3431 34.8642 48.6503 32.7614 43.4473 32.9389C34.5083 33.2439 27.1081 40.4108 26.537 49.3368C25.8827 59.5608 33.9782 68.0574 44.0575 68.0574C49.0224 68.0574 53.4844 65.9817 56.671 62.663C56.9526 62.3698 56.5639 61.9301 56.2275 62.1581C54.0069 63.6637 51.3404 64.5526 48.4485 64.5526Z" fill="#F5F5F5"/>
</g>
<rect x="2" y="2" width="94" height="94" rx="47" stroke="white" stroke-opacity="0.1" stroke-width="4"/>
<defs>
<clipPath id="clip0_2309_2605">
<rect x="4" y="4" width="90" height="90" rx="45" fill="white"/>
</clipPath>
</defs>
</svg>
